<?xml version="1.0" standalone="no"?>
<!DOCTYPE svg PUBLIC "-//W3C//DTD SVG 20010904//EN"
 "http://www.w3.org/TR/2001/REC-SVG-20010904/DTD/svg10.dtd">
<svg version="1.0" xmlns="http://www.w3.org/2000/svg"
 width="206.000000pt" height="219.000000pt" viewBox="0 0 206.000000 219.000000"
 preserveAspectRatio="xMidYMid meet">
<metadata>
Created by potrace 1.16, written by Peter Selinger 2001-2019
</metadata>
<g transform="translate(0.000000,219.000000) scale(0.100000,-0.100000)"
fill="#000000" stroke="none">
<path d="M838 2135 c-243 -38 -462 -149 -634 -320 -82 -83 -204 -254 -204
-287 0 -10 14 -41 32 -70 132 -219 368 -412 588 -483 30 -10 58 -20 62 -24 4
-4 -6 -26 -22 -50 -56 -85 -61 -131 -58 -496 l3 -330 160 0 160 0 0 50 0 50
-39 6 c-25 4 -48 16 -63 33 -23 27 -23 31 -23 270 0 239 0 243 25 293 84 169
338 141 384 -42 7 -27 11 -161 11 -355 l0 -310 163 2 162 3 0 50 0 50 -38 6
c-20 3 -48 16 -61 28 -24 23 -24 23 -28 294 -4 256 -5 275 -27 327 -12 30 -33
69 -47 87 l-24 31 53 18 c122 40 281 133 393 230 108 94 244 279 244 332 0 39
-107 191 -199 283 -259 258 -620 378 -973 324z m353 -211 c336 -159 338 -625
2 -791 -75 -37 -80 -38 -188 -38 -103 0 -114 2 -178 32 -94 45 -169 119 -215
213 -36 73 -37 79 -37 185 0 103 2 114 32 178 36 76 116 166 181 204 73 43
119 53 232 50 94 -2 112 -6 171 -33z m-782 -234 c-27 -100 -23 -278 9 -357 11
-29 18 -53 15 -53 -15 0 -114 96 -168 164 l-64 79 31 46 c32 47 186 206 193
199 2 -2 -5 -37 -16 -78z m1286 -21 c34 -35 74 -81 89 -102 l29 -37 -28 -43
c-29 -43 -194 -212 -200 -205 -3 2 6 33 17 68 30 90 30 267 1 357 l-21 63 27
-19 c14 -10 53 -48 86 -82z"/>
<path d="M953 1819 c-180 -34 -286 -220 -226 -395 11 -33 34 -67 72 -105 71
-70 133 -94 230 -87 112 8 193 63 243 165 56 115 40 236 -46 330 -62 69 -183
110 -273 92z m133 -213 c28 -28 34 -41 34 -78 0 -24 -7 -54 -16 -66 -19 -28
-65 -52 -99 -52 -78 0 -138 95 -104 163 21 42 61 67 108 67 36 0 49 -6 77 -34z"/>
</g>
</svg>
