<?xml version="1.0" standalone="no"?>
<!DOCTYPE svg PUBLIC "-//W3C//DTD SVG 20010904//EN"
 "http://www.w3.org/TR/2001/REC-SVG-20010904/DTD/svg10.dtd">
<svg version="1.0" xmlns="http://www.w3.org/2000/svg"
 width="508.000000pt" height="491.000000pt" viewBox="0 0 508.000000 491.000000"
 preserveAspectRatio="xMidYMid meet">
<metadata>
Created by potrace 1.16, written by Peter Selinger 2001-2019
</metadata>
<g transform="translate(0.000000,491.000000) scale(0.100000,-0.100000)"
fill="#000000" stroke="none">
<path d="M3130 4838 c-96 -20 -251 -53 -345 -73 -93 -19 -246 -51 -340 -70
-324 -68 -700 -146 -745 -155 -68 -13 -78 -19 -102 -58 -12 -21 -123 -190
-246 -377 -124 -187 -271 -410 -327 -495 l-102 -156 48 -224 c51 -233 71 -331
119 -560 16 -74 43 -198 60 -275 33 -146 35 -156 69 -322 21 -102 103 -489
122 -573 5 -25 16 -74 24 -109 7 -34 16 -65 19 -68 5 -5 126 19 520 102 66 13
121 23 123 22 1 -2 -12 -43 -30 -93 l-32 -89 -3 -582 -3 -583 286 0 285 0 0
65 c0 62 -1 65 -27 70 -114 24 -172 67 -193 144 -8 31 -10 154 -7 425 4 405 5
412 57 517 30 60 104 135 165 167 45 24 61 26 155 27 91 0 111 -3 155 -25 66
-32 145 -112 178 -180 22 -45 251 -917 287 -1095 12 -54 20 -75 32 -75 10 0
227 51 423 100 68 17 111 33 112 41 2 8 -3 37 -10 64 l-13 50 -75 5 c-54 4
-85 12 -112 29 -71 44 -74 50 -227 661 -34 135 -75 279 -91 321 -32 82 -88
170 -150 234 l-39 41 202 41 c532 109 604 125 611 133 5 4 -3 61 -18 126 -15
66 -35 157 -45 204 -36 168 -60 282 -124 576 -36 164 -110 511 -165 769 -55
259 -128 596 -161 750 -68 314 -120 564 -120 575 0 18 -34 14 -200 -22z m-6
-498 c19 -91 39 -185 44 -210 5 -25 37 -171 71 -325 100 -459 361 -1688 361
-1700 0 -7 -59 -24 -147 -43 -82 -17 -213 -45 -293 -62 -80 -17 -165 -35 -190
-40 -25 -5 -88 -18 -140 -30 -52 -11 -138 -29 -190 -40 -52 -10 -160 -33 -240
-50 -80 -17 -197 -42 -260 -55 -63 -13 -204 -43 -313 -65 -109 -23 -200 -40
-203 -37 -6 5 -26 87 -53 217 -11 52 -33 158 -50 235 -17 77 -44 203 -60 280
-17 77 -53 248 -81 380 -28 132 -60 284 -72 338 -23 105 -21 116 25 117 11 0
155 29 320 65 166 35 342 72 390 81 48 10 94 22 102 28 12 9 7 45 -36 236 -91
412 -129 594 -129 610 0 14 22 22 103 38 132 27 454 94 582 122 55 11 170 36
255 54 85 18 158 30 162 27 4 -3 23 -80 42 -171z m-1376 -477 c23 -108 39
-200 35 -204 -7 -6 -145 -36 -273 -59 -25 -5 -64 -13 -88 -18 -33 -8 -42 -7
-39 2 9 23 310 476 317 476 4 0 25 -89 48 -197z"/>
<path d="M2860 3160 c-124 -27 -313 -68 -420 -90 -505 -104 -801 -168 -806
-173 -4 -3 1 -43 11 -89 9 -46 22 -108 29 -138 l11 -55 45 1 c25 0 133 20 240
43 107 23 258 55 335 71 77 16 217 46 310 65 94 20 255 54 359 76 104 21 191
41 194 44 3 2 -8 69 -24 147 -21 103 -34 143 -44 145 -8 1 -116 -21 -240 -47z"/>
<path d="M3095 2590 c-270 -57 -344 -72 -500 -105 -88 -18 -248 -52 -355 -74
-107 -23 -251 -53 -320 -67 -159 -32 -160 -32 -160 -52 0 -9 12 -75 27 -146
l27 -128 50 5 c28 3 116 19 196 36 80 18 242 52 360 77 118 24 276 58 350 74
74 16 213 45 308 65 220 45 222 45 222 59 -1 28 -58 268 -66 275 -5 4 -67 -4
-139 -19z"/>
</g>
</svg>
