<?xml version="1.0" standalone="no"?>
<!DOCTYPE svg PUBLIC "-//W3C//DTD SVG 20010904//EN"
 "http://www.w3.org/TR/2001/REC-SVG-20010904/DTD/svg10.dtd">
<svg version="1.0" xmlns="http://www.w3.org/2000/svg"
 width="236.000000pt" height="228.000000pt" viewBox="0 0 236.000000 228.000000"
 preserveAspectRatio="xMidYMid meet">
<metadata>
Created by potrace 1.16, written by Peter Selinger 2001-2019
</metadata>
<g transform="translate(0.000000,228.000000) scale(0.100000,-0.100000)"
fill="#000000" stroke="none">
<path d="M83 2198 c-12 -6 -23 -18 -25 -26 -2 -9 -2 -309 0 -669 l2 -653 385
0 c212 0 385 -2 385 -4 0 -2 -12 -30 -27 -62 l-28 -59 -3 -357 -3 -358 165 0
166 0 0 55 0 55 -36 0 c-26 0 -43 8 -65 29 l-29 29 0 244 c0 241 0 245 25 295
36 71 89 106 169 111 75 5 128 -18 174 -73 49 -60 52 -86 52 -429 l0 -316 160
0 160 0 0 55 c0 55 0 55 -31 55 -20 0 -40 10 -60 29 l-29 29 0 224 c0 253 -9
330 -43 399 l-24 49 384 0 383 0 0 680 0 680 -1092 -1 c-751 0 -1100 -4 -1115
-11z m371 -192 c-20 -95 -95 -170 -191 -191 l-33 -7 0 117 0 116 116 -2 115
-1 -7 -32z m1275 -28 c30 -173 172 -313 337 -334 l54 -6 0 -107 0 -107 -62
-12 c-85 -16 -156 -53 -217 -113 -61 -61 -97 -132 -112 -217 l-11 -62 -543 0
-543 0 -6 54 c-21 167 -159 305 -336 338 l-60 12 0 107 0 107 55 7 c75 9 183
65 234 121 53 56 98 150 107 220 l6 54 543 0 543 0 11 -62z m391 -53 l0 -115
-27 6 c-83 20 -125 50 -163 117 -16 29 -30 64 -30 80 l0 27 110 0 110 0 0
-115z m-1773 -716 c53 -33 89 -86 106 -160 l7 -27 -115 -1 -115 -2 0 114 0
115 42 -10 c23 -5 57 -18 75 -29z m1768 -156 l-6 -33 -104 0 -105 0 0 28 c0
15 14 50 30 79 32 55 93 100 153 112 l32 7 3 -81 c2 -44 0 -95 -3 -112z"/>
<path d="M1110 1922 l0 -48 -45 -12 c-56 -15 -130 -80 -146 -129 -16 -49 -7
-138 18 -171 30 -41 89 -69 193 -93 52 -12 107 -28 122 -35 80 -41 12 -133
-90 -121 -55 6 -94 34 -107 75 l-9 32 -78 0 -78 0 6 -27 c15 -69 28 -94 68
-131 24 -22 65 -47 94 -56 l52 -18 0 -49 0 -49 60 0 60 0 0 49 0 48 45 13
c129 36 199 168 151 284 -25 60 -94 94 -260 126 -57 12 -106 44 -106 70 0 6
14 25 30 42 28 28 35 30 81 26 52 -5 85 -27 100 -65 8 -21 15 -23 85 -23 l76
0 -7 33 c-17 79 -75 141 -157 167 -37 11 -38 13 -38 61 l0 49 -60 0 -60 0 0
-48z"/>
</g>
</svg>
