<?xml version="1.0" standalone="no"?>
<!DOCTYPE svg PUBLIC "-//W3C//DTD SVG 20010904//EN"
 "http://www.w3.org/TR/2001/REC-SVG-20010904/DTD/svg10.dtd">
<svg version="1.0" xmlns="http://www.w3.org/2000/svg"
 width="567.000000pt" height="440.000000pt" viewBox="0 0 567.000000 440.000000"
 preserveAspectRatio="xMidYMid meet">
<metadata>
Created by potrace 1.16, written by Peter Selinger 2001-2019
</metadata>
<g transform="translate(0.000000,440.000000) scale(0.100000,-0.100000)"
fill="#000000" stroke="none">
<path d="M2585 4179 c-193 -13 -363 -62 -547 -157 -145 -74 -254 -157 -376
-286 -178 -189 -287 -408 -343 -691 -21 -104 -18 -368 4 -475 62 -287 178
-501 382 -705 77 -78 140 -129 211 -174 l101 -64 -63 -79 c-99 -121 -130 -196
-199 -478 -25 -102 -54 -216 -64 -255 -11 -38 -34 -128 -52 -200 -17 -71 -40
-146 -49 -165 -38 -74 -101 -110 -193 -110 l-65 0 -15 -62 c-10 -39 -12 -65
-6 -68 5 -4 44 -14 87 -24 42 -10 149 -36 237 -58 88 -22 174 -43 191 -45 l32
-5 20 84 c11 45 66 263 122 483 56 220 111 435 121 478 10 43 31 101 45 129
36 71 113 149 181 184 51 26 68 29 148 29 114 0 171 -21 244 -89 37 -35 64
-73 86 -121 58 -126 60 -144 58 -547 -1 -340 -3 -370 -21 -410 -30 -68 -71
-99 -144 -113 l-63 -11 0 -65 0 -64 283 -3 283 -2 -3 597 c-4 679 2 633 -93
790 -25 42 -45 79 -45 83 0 5 30 18 68 30 86 29 220 94 312 154 99 64 315 281
380 381 105 162 179 353 205 527 32 213 6 533 -54 663 -5 11 -28 62 -50 113
-113 263 -342 502 -621 650 -211 112 -484 168 -735 151z m370 -338 c97 -25
265 -105 355 -168 96 -69 228 -208 283 -300 96 -160 146 -323 154 -499 7 -137
-8 -247 -52 -379 -38 -118 -50 -142 -123 -253 -202 -307 -566 -488 -945 -469
-263 13 -495 112 -678 288 -139 135 -209 239 -274 409 -54 138 -71 340 -45
528 55 407 432 785 855 858 117 20 366 12 470 -15z"/>
<path d="M2695 3710 c-3 -9 -12 -54 -20 -100 -8 -46 -16 -84 -18 -86 -2 -2
-37 -8 -78 -14 -158 -22 -312 -131 -357 -253 -28 -74 -28 -95 1 -101 51 -11
258 -38 260 -35 2 2 15 23 30 46 14 23 43 54 63 70 33 25 46 28 118 30 118 2
185 -25 234 -98 18 -26 23 -43 19 -72 -12 -89 -74 -116 -291 -128 -302 -17
-389 -38 -474 -114 -74 -67 -97 -130 -97 -270 0 -98 3 -116 27 -167 48 -103
169 -209 272 -238 52 -14 51 -10 32 -130 -8 -47 -12 -87 -10 -90 3 -2 17 -6
32 -7 15 -2 67 -11 116 -19 68 -11 91 -12 96 -3 4 6 13 45 20 87 7 42 14 81
17 88 2 7 28 15 56 19 123 15 239 64 318 133 52 46 117 160 121 213 l3 34 -95
16 c-52 9 -116 20 -142 23 l-47 7 -25 -49 c-49 -97 -129 -137 -253 -130 -179
11 -290 116 -237 225 33 67 72 78 329 88 242 10 351 42 439 130 61 61 101 183
94 284 -11 144 -102 271 -250 345 -88 44 -86 39 -64 156 8 41 12 78 8 81 -4 4
-60 16 -124 26 -110 18 -118 19 -123 3z"/>
<path d="M579 3608 c-7 -13 -31 -59 -54 -103 -23 -44 -50 -94 -61 -112 -10
-17 -16 -34 -14 -36 4 -4 172 -95 478 -259 51 -28 94 -49 96 -47 15 22 92 157
115 204 36 71 43 62 -107 141 -284 149 -408 216 -416 224 -15 15 -24 12 -37
-12z"/>
<path d="M4520 3545 c-293 -118 -341 -139 -346 -147 -3 -4 20 -67 50 -140 47
-115 57 -133 76 -131 11 2 78 26 148 54 70 29 152 60 182 71 30 11 99 38 152
60 l97 41 -13 31 c-7 17 -32 79 -56 139 -37 89 -47 107 -65 106 -11 -1 -112
-39 -225 -84z"/>
<path d="M4790 2994 c-228 -8 -430 -17 -447 -20 l-33 -5 0 -97 c0 -53 3 -121
7 -151 l6 -54 341 8 c188 4 404 10 481 14 l140 6 0 155 0 155 -40 1 c-22 1
-227 -5 -455 -12z"/>
<path d="M845 2913 c-121 -6 -677 -43 -738 -49 l-58 -6 7 -132 c10 -185 1
-174 126 -169 166 6 851 53 856 58 2 2 0 70 -5 152 l-8 148 -55 1 c-30 0 -86
-1 -125 -3z"/>
<path d="M4236 2410 c-42 -71 -76 -131 -76 -134 0 -4 64 -42 169 -98 31 -17
74 -43 96 -58 22 -15 60 -37 85 -50 25 -12 82 -45 128 -72 47 -28 87 -46 92
-42 13 14 150 244 150 252 0 8 -80 57 -300 182 -74 42 -162 93 -195 113 -33
20 -63 37 -66 37 -4 0 -41 -58 -83 -130z"/>
<path d="M1000 2441 c-346 -147 -500 -216 -500 -225 0 -6 25 -70 56 -143 l56
-132 61 23 c34 13 105 42 157 65 52 23 154 68 225 99 72 30 134 59 139 63 4 4
-3 31 -17 61 -13 29 -28 64 -32 78 -12 39 -64 140 -73 139 -4 0 -36 -13 -72
-28z"/>
</g>
</svg>
