<?xml version="1.0" encoding="UTF-8"?>
<svg id="Capa_2" data-name="Capa 2" xmlns="http://www.w3.org/2000/svg" viewBox="0 0 117.96 185.72">
  <defs>
    <style>
      .cls-1 {
        stroke-width: 0px;
      }
    </style>
  </defs>
  <g id="Recursos">
    <g>
      <path class="cls-1" d="m84.41,0h-50.87C15.05,0,0,15.05,0,33.54v50.87c0,17.68,13.75,32.19,31.11,33.45-3.29,4.95-5.21,10.89-5.21,17.27v50.59h26.05v-7.7h-2.2c-4.68,0-8.47-3.79-8.47-8.47v-33.76c0-9.8,7.94-17.75,17.75-17.75s17.75,7.94,17.75,17.75v49.93h26.05v-7.7h-2.2c-4.68,0-8.47-3.79-8.47-8.47v-34.42c0-6.39-1.92-12.33-5.21-17.28,17.33-1.29,31.04-15.79,31.04-33.44v-50.87C117.96,15.05,102.91,0,84.41,0Zm18.68,84.41c0,10.3-8.38,18.68-18.68,18.68h-50.87c-10.3,0-18.68-8.38-18.68-18.68v-50.87c0-10.3,8.38-18.68,18.68-18.68h50.87c10.3,0,18.68,8.38,18.68,18.68v50.87Z"/>
      <path class="cls-1" d="m58.98,77.2c-8.09,0-14.67-6.58-14.67-14.67h-14.87c0,16.29,13.25,29.54,29.54,29.54s29.54-13.25,29.54-29.54h-14.87c0,8.09-6.58,14.67-14.67,14.67Z"/>
    </g>
  </g>
</svg>