<?xml version="1.0" encoding="UTF-8"?>
<svg id="Capa_2" data-name="Capa 2" xmlns="http://www.w3.org/2000/svg" viewBox="0 0 153.27 165.21">
  <defs>
    <style>
      .cls-1 {
        stroke-width: 0px;
      }
    </style>
  </defs>
  <g id="Recursos">
    <g>
      <path class="cls-1" d="m151.47,77.84c8.23-33.7-12.49-67.81-46.19-76.04S37.46,14.3,29.23,48c-6.26,25.65,4.25,51.52,24.49,66.06l-36.17,5.56c-4.61.71-8.93-2.46-9.64-7.07l-.33-2.17-7.58,1.17,1.62,10.52,2.33,15.15,57.71-8.87c8.29-1.27,16.76.54,23.81,5.11l48.99,31.76,8.34-12.86,5.79-8.93-6.44-4.17-1.19,1.84c-2.54,3.92-7.77,5.03-11.69,2.49l-28.67-18.59c24.1-4.01,44.72-21.95,50.87-47.14Zm-72.51,31.75c-25.74-6.28-41.56-32.34-35.28-58.07,6.28-25.74,32.34-41.56,58.07-35.28h0c25.74,6.28,41.56,32.34,35.28,58.07-6.28,25.74-32.34,41.56-58.07,35.28Z"/>
      <path class="cls-1" d="m85.71,81.9c-7.86-1.92-12.69-9.87-10.77-17.73l-14.44-3.53c-3.86,15.82,5.87,31.84,21.69,35.7,15.82,3.86,31.84-5.87,35.7-21.69l-14.44-3.53c-1.92,7.86-9.87,12.69-17.73,10.77Z"/>
    </g>
  </g>
</svg>