<?xml version="1.0" encoding="UTF-8"?>
<svg id="Capa_2" data-name="Capa 2" xmlns="http://www.w3.org/2000/svg" viewBox="0 0 148.58 162.69">
  <defs>
    <style>
      .cls-1 {
        stroke-width: 0px;
      }
    </style>
  </defs>
  <g id="Recursos">
    <g>
      <path class="cls-1" d="m85.62,78.74c-7.86-1.92-12.69-9.88-10.76-17.74l-14.44-3.54c-3.87,15.82,5.85,31.84,21.67,35.71,15.82,3.87,31.84-5.85,35.71-21.67l-14.44-3.54c-1.92,7.86-9.88,12.69-17.74,10.76Z"/>
      <path class="cls-1" d="m142.14,136.72l-1.19,1.84c-2.54,3.92-7.77,5.03-11.69,2.49l-17.28-11.2,2.68.66c9.38,2.3,18.97-.5,25.65-7.47,6.68-6.98,9.06-16.68,6.35-25.95l-22.67-77.82c-2.7-9.27-9.92-16.18-19.3-18.48,0,0,0,0,0,0-9.38-2.3-18.97.5-25.65,7.47l-56.06,58.55c-6.68,6.98-9.06,16.68-6.35,25.95,2.7,9.27,9.92,16.18,19.3,18.48l7.61,1.86-25.99,4c-4.61.71-8.93-2.46-9.64-7.07l-.33-2.17-7.58,1.17,1.62,10.52,2.33,15.15,57.71-8.87c8.29-1.27,16.76.54,23.81,5.11l48.99,31.76,8.34-12.86,5.79-8.93-6.44-4.17ZM30.91,88.6c-1.2-4.11-.14-8.42,2.82-11.51l56.06-58.55h0c2.96-3.09,7.22-4.33,11.38-3.31,4.16,1.02,7.36,4.08,8.56,8.2l22.67,77.82c1.2,4.11.14,8.42-2.82,11.51-2.96,3.09-7.22,4.33-11.38,3.31l-78.73-19.28c-4.16-1.02-7.36-4.08-8.56-8.2Z"/>
    </g>
  </g>
</svg>