<?xml version="1.0" encoding="UTF-8"?>
<svg id="Capa_2" data-name="Capa 2" xmlns="http://www.w3.org/2000/svg" viewBox="0 0 125.83 193.59">
  <defs>
    <style>
      .cls-1 {
        stroke-width: 0px;
      }
    </style>
  </defs>
  <g id="Recursos">
    <g>
      <path class="cls-1" d="m125.83,62.91C125.83,28.22,97.6,0,62.91,0S0,28.22,0,62.91c0,26.18,16.08,48.68,38.89,58.14-5.57,5.64-9.02,13.4-9.02,21.95v50.59h26.05v-7.7h-2.2c-4.68,0-8.47-3.79-8.47-8.47v-33.76c0-9.8,7.94-17.75,17.75-17.75s17.75,7.94,17.75,17.75v49.93h26.05v-7.7h-2.2c-4.68,0-8.47-3.79-8.47-8.47v-34.42c0-8.58-3.46-16.35-9.06-22,22.74-9.49,38.77-31.95,38.77-58.09Zm-62.91,48.05c-26.49,0-48.05-21.55-48.05-48.05S36.42,14.87,62.91,14.87h0c26.49,0,48.05,21.55,48.05,48.05s-21.55,48.05-48.05,48.05Z"/>
      <path class="cls-1" d="m62.91,82.45c-8.09,0-14.67-6.58-14.67-14.67h-14.87c0,16.29,13.25,29.54,29.54,29.54s29.54-13.25,29.54-29.54h-14.87c0,8.09-6.58,14.67-14.67,14.67Z"/>
    </g>
  </g>
</svg>