<?xml version="1.0" encoding="UTF-8"?>
<svg id="Capa_2" data-name="Capa 2" xmlns="http://www.w3.org/2000/svg" viewBox="0 0 134.58 191.4">
  <defs>
    <style>
      .cls-1 {
        stroke-width: 0px;
      }
    </style>
  </defs>
  <g id="Recursos">
    <g>
      <path class="cls-1" d="m67.29,80.25c-8.09,0-14.67-6.58-14.67-14.67h-14.87c0,16.29,13.25,29.54,29.54,29.54s29.54-13.25,29.54-29.54h-14.87c0,8.09-6.58,14.67-14.67,14.67Z"/>
      <path class="cls-1" d="m130.96,83.56L90.43,13.36c-4.83-8.36-13.48-13.36-23.14-13.36,0,0,0,0,0,0-9.66,0-18.31,4.99-23.14,13.36L3.62,83.56c-4.83,8.36-4.83,18.35,0,26.72,4.83,8.36,13.48,13.36,23.14,13.36h11.53c-3.25,4.93-5.15,10.83-5.15,17.18v50.59h26.05v-7.7h-2.2c-4.68,0-8.48-3.79-8.48-8.47v-33.76c0-9.8,7.94-17.75,17.75-17.75s17.75,7.94,17.75,17.75v49.93h26.05v-7.7h-2.2c-4.68,0-8.48-3.79-8.48-8.47v-34.42c0-6.35-1.9-12.25-5.15-17.18h13.59c9.66,0,18.31-4.99,23.14-13.36,4.83-8.36,4.83-18.35,0-26.72Zm-12.87,19.28c-2.14,3.71-5.98,5.93-10.26,5.93H26.76c-4.28,0-8.12-2.22-10.26-5.93-2.14-3.71-2.14-8.14,0-11.85L57.03,20.79h0c2.14-3.71,5.98-5.93,10.26-5.93s8.12,2.22,10.26,5.93l40.53,70.2c2.14,3.71,2.14,8.14,0,11.85Z"/>
    </g>
  </g>
</svg>