<?xml version="1.0" encoding="UTF-8"?>
<svg id="Capa_2" data-name="Capa 2" xmlns="http://www.w3.org/2000/svg" viewBox="0 0 154.54 165.21">
  <defs>
    <style>
      .cls-1 {
        stroke-width: 0px;
      }
    </style>
  </defs>
  <g id="Recursos">
    <g>
      <path class="cls-1" d="m141.81,102.63l11.81-49.48c4.29-17.99-6.85-36.12-24.84-40.42L79.31.92c-17.99-4.3-36.12,6.85-40.42,24.84l-11.81,49.48c-4.05,16.98,5.64,34.07,21.87,39.56l-31.39,4.83c-4.61.71-8.93-2.46-9.64-7.07l-.33-2.17-7.58,1.17,1.62,10.52,2.33,15.15,57.71-8.87c8.29-1.27,16.76.54,23.81,5.11l48.99,31.76,8.34-12.86,5.79-8.93-6.44-4.17-1.19,1.84c-2.54,3.92-7.77,5.03-11.69,2.49l-23.77-15.41c16.57,1.84,32.35-8.92,36.32-25.54Zm-36.97,10.38l-49.48-11.81c-10.02-2.39-16.22-12.49-13.83-22.51l11.81-49.48c2.39-10.02,12.49-16.22,22.51-13.83l49.48,11.81c10.02,2.39,16.22,12.49,13.83,22.51l-11.81,49.48c-2.39,10.02-12.49,16.22-22.51,13.83Z"/>
      <path class="cls-1" d="m86.12,81.91c-7.87-1.88-12.74-9.81-10.86-17.68l-14.46-3.45c-3.78,15.84,6.03,31.81,21.87,35.59s31.81-6.03,35.59-21.87l-14.46-3.45c-1.88,7.87-9.81,12.74-17.68,10.86Z"/>
    </g>
  </g>
</svg>